<mxfile host="app.diagrams.net" agent="Mozilla/5.0 (Windows NT 10.0; Win64; x64; rv:130.0) Gecko/20100101 Firefox/130.0" version="24.7.16">
  <diagram name="Page-1" id="P46PCvA6-mbeyHeX9NN9">
    <mxGraphModel dx="1389" dy="574" grid="1" gridSize="10" guides="1" tooltips="1" connect="1" arrows="1" fold="1" page="0" pageScale="1" pageWidth="1100" pageHeight="850" math="0" shadow="0">
      <root>
        <mxCell id="0" />
        <mxCell id="1" parent="0" />
        <mxCell id="H5D1-LG8uuELdQs0xLWp-11" style="edgeStyle=none;curved=1;rounded=0;orthogonalLoop=1;jettySize=auto;html=1;exitX=1;exitY=1;exitDx=0;exitDy=0;entryX=0;entryY=0;entryDx=0;entryDy=0;fontSize=12;startSize=8;endSize=8;endArrow=none;endFill=0;" edge="1" parent="1" source="H5D1-LG8uuELdQs0xLWp-2" target="H5D1-LG8uuELdQs0xLWp-4">
          <mxGeometry relative="1" as="geometry" />
        </mxCell>
        <mxCell id="H5D1-LG8uuELdQs0xLWp-12" style="edgeStyle=none;curved=1;rounded=0;orthogonalLoop=1;jettySize=auto;html=1;exitX=0;exitY=1;exitDx=0;exitDy=0;entryX=1;entryY=0;entryDx=0;entryDy=0;fontSize=12;startSize=8;endSize=8;endArrow=none;endFill=0;" edge="1" parent="1" source="H5D1-LG8uuELdQs0xLWp-2" target="H5D1-LG8uuELdQs0xLWp-5">
          <mxGeometry relative="1" as="geometry" />
        </mxCell>
        <mxCell id="H5D1-LG8uuELdQs0xLWp-2" value="3" style="ellipse;whiteSpace=wrap;html=1;aspect=fixed;" vertex="1" parent="1">
          <mxGeometry x="40" y="160" width="40" height="40" as="geometry" />
        </mxCell>
        <mxCell id="H5D1-LG8uuELdQs0xLWp-4" value="c" style="ellipse;whiteSpace=wrap;html=1;aspect=fixed;" vertex="1" parent="1">
          <mxGeometry x="120" y="240" width="40" height="40" as="geometry" />
        </mxCell>
        <mxCell id="H5D1-LG8uuELdQs0xLWp-5" value="a" style="ellipse;whiteSpace=wrap;html=1;aspect=fixed;" vertex="1" parent="1">
          <mxGeometry x="-40" y="240" width="40" height="40" as="geometry" />
        </mxCell>
        <mxCell id="H5D1-LG8uuELdQs0xLWp-6" value="d" style="ellipse;whiteSpace=wrap;html=1;aspect=fixed;" vertex="1" parent="1">
          <mxGeometry x="-120" y="160" width="40" height="40" as="geometry" />
        </mxCell>
        <mxCell id="H5D1-LG8uuELdQs0xLWp-10" style="edgeStyle=none;curved=1;rounded=0;orthogonalLoop=1;jettySize=auto;html=1;exitX=1;exitY=0.5;exitDx=0;exitDy=0;fontSize=12;startSize=8;endSize=8;" edge="1" parent="1" source="H5D1-LG8uuELdQs0xLWp-4" target="H5D1-LG8uuELdQs0xLWp-4">
          <mxGeometry relative="1" as="geometry" />
        </mxCell>
        <mxCell id="H5D1-LG8uuELdQs0xLWp-15" style="edgeStyle=none;curved=1;rounded=0;orthogonalLoop=1;jettySize=auto;html=1;exitX=1;exitY=1;exitDx=0;exitDy=0;entryX=0;entryY=0;entryDx=0;entryDy=0;fontSize=12;startSize=8;endSize=8;" edge="1" parent="1" source="H5D1-LG8uuELdQs0xLWp-14" target="H5D1-LG8uuELdQs0xLWp-2">
          <mxGeometry relative="1" as="geometry" />
        </mxCell>
        <mxCell id="H5D1-LG8uuELdQs0xLWp-16" style="edgeStyle=none;curved=1;rounded=0;orthogonalLoop=1;jettySize=auto;html=1;exitX=0;exitY=1;exitDx=0;exitDy=0;entryX=1;entryY=0;entryDx=0;entryDy=0;fontSize=12;startSize=8;endSize=8;" edge="1" parent="1" source="H5D1-LG8uuELdQs0xLWp-14" target="H5D1-LG8uuELdQs0xLWp-6">
          <mxGeometry relative="1" as="geometry" />
        </mxCell>
        <mxCell id="H5D1-LG8uuELdQs0xLWp-14" value="6" style="ellipse;whiteSpace=wrap;html=1;aspect=fixed;" vertex="1" parent="1">
          <mxGeometry x="-40" y="80" width="40" height="40" as="geometry" />
        </mxCell>
        <mxCell id="H5D1-LG8uuELdQs0xLWp-17" value="b" style="ellipse;whiteSpace=wrap;html=1;aspect=fixed;" vertex="1" parent="1">
          <mxGeometry x="120" y="80" width="40" height="40" as="geometry" />
        </mxCell>
        <mxCell id="H5D1-LG8uuELdQs0xLWp-19" style="edgeStyle=none;curved=1;rounded=0;orthogonalLoop=1;jettySize=auto;html=1;exitX=0;exitY=1;exitDx=0;exitDy=0;entryX=1;entryY=0;entryDx=0;entryDy=0;fontSize=12;startSize=8;endSize=8;" edge="1" parent="1" source="H5D1-LG8uuELdQs0xLWp-18" target="H5D1-LG8uuELdQs0xLWp-14">
          <mxGeometry relative="1" as="geometry" />
        </mxCell>
        <mxCell id="H5D1-LG8uuELdQs0xLWp-20" style="edgeStyle=none;curved=1;rounded=0;orthogonalLoop=1;jettySize=auto;html=1;exitX=1;exitY=1;exitDx=0;exitDy=0;entryX=0;entryY=0;entryDx=0;entryDy=0;fontSize=12;startSize=8;endSize=8;" edge="1" parent="1" source="H5D1-LG8uuELdQs0xLWp-18" target="H5D1-LG8uuELdQs0xLWp-17">
          <mxGeometry relative="1" as="geometry" />
        </mxCell>
        <mxCell id="H5D1-LG8uuELdQs0xLWp-18" value="10" style="ellipse;whiteSpace=wrap;html=1;aspect=fixed;" vertex="1" parent="1">
          <mxGeometry x="40" width="40" height="40" as="geometry" />
        </mxCell>
        <mxCell id="H5D1-LG8uuELdQs0xLWp-21" value="1" style="text;html=1;align=center;verticalAlign=middle;whiteSpace=wrap;rounded=0;fontSize=16;" vertex="1" parent="1">
          <mxGeometry x="110" y="50" width="60" height="30" as="geometry" />
        </mxCell>
        <mxCell id="H5D1-LG8uuELdQs0xLWp-22" value="00" style="text;html=1;align=center;verticalAlign=middle;whiteSpace=wrap;rounded=0;fontSize=16;" vertex="1" parent="1">
          <mxGeometry x="-130" y="130" width="60" height="30" as="geometry" />
        </mxCell>
        <mxCell id="H5D1-LG8uuELdQs0xLWp-23" value="010" style="text;html=1;align=center;verticalAlign=middle;whiteSpace=wrap;rounded=0;fontSize=16;" vertex="1" parent="1">
          <mxGeometry x="110" y="210" width="60" height="30" as="geometry" />
        </mxCell>
        <mxCell id="H5D1-LG8uuELdQs0xLWp-24" value="011" style="text;html=1;align=center;verticalAlign=middle;whiteSpace=wrap;rounded=0;fontSize=16;" vertex="1" parent="1">
          <mxGeometry x="-50" y="210" width="60" height="30" as="geometry" />
        </mxCell>
      </root>
    </mxGraphModel>
  </diagram>
</mxfile>
